<?xml version="1.0" standalone="no"?>
<!DOCTYPE svg PUBLIC "-//W3C//DTD SVG 20010904//EN"
 "http://www.w3.org/TR/2001/REC-SVG-20010904/DTD/svg10.dtd">
<svg version="1.0" xmlns="http://www.w3.org/2000/svg"
 width="655.000000pt" height="115.000000pt" viewBox="0 0 655.000000 115.000000"
 preserveAspectRatio="xMidYMid meet">
<metadata>
Created by potrace 1.16, written by Peter Selinger 2001-2019
</metadata>
<g transform="translate(0.000000,115.000000) scale(0.100000,-0.100000)"
fill="#000000" stroke="none">
<path d="M2290 575 l0 -505 980 0 980 0 0 505 0 505 -980 0 -980 0 0 -505z
m1900 0 l0 -445 -917 2 -918 3 -3 443 -2 442 920 0 920 0 0 -445z"/>
<path d="M4520 575 l0 -505 980 0 980 0 0 505 0 505 -980 0 -980 0 0 -505z
m1900 0 l0 -445 -917 2 -918 3 -3 443 -2 442 920 0 920 0 0 -445z"/>
<path d="M70 565 l0 -505 980 0 980 0 0 505 0 505 -980 0 -980 0 0 -505z
m1900 0 l0 -445 -917 2 -918 3 -3 443 -2 442 920 0 920 0 0 -445z"/>
</g>
</svg>
