<?xml version="1.0" standalone="no"?>
<!DOCTYPE svg PUBLIC "-//W3C//DTD SVG 20010904//EN"
 "http://www.w3.org/TR/2001/REC-SVG-20010904/DTD/svg10.dtd">
<svg version="1.0" xmlns="http://www.w3.org/2000/svg"
 width="523.000000pt" height="161.000000pt" viewBox="0 0 523.000000 161.000000"
 preserveAspectRatio="xMidYMid meet">
<metadata>
Created by potrace 1.16, written by Peter Selinger 2001-2019
</metadata>
<g transform="translate(0.000000,161.000000) scale(0.100000,-0.100000)"
fill="#000000" stroke="none">
<path d="M370 1325 l-220 -220 0 -305 0 -305 218 -218 217 -217 310 0 310 0
218 218 217 217 0 310 0 310 -213 213 -212 212 -313 3 -312 2 -220 -220z
m1012 -42 l198 -198 0 -280 0 -280 -202 -202 -203 -203 -280 0 -280 0 -197
197 -198 198 0 285 0 285 197 197 198 198 285 0 285 0 197 -197z"/>
<path d="M2140 1325 l-220 -220 0 -305 0 -305 218 -218 217 -217 310 0 310 0
218 218 217 217 0 310 0 310 -213 213 -212 212 -313 3 -312 2 -220 -220z
m1012 -42 l198 -198 0 -280 0 -280 -202 -202 -203 -203 -280 0 -280 0 -197
197 -198 198 0 285 0 285 197 197 198 198 285 0 285 0 197 -197z"/>
<path d="M3900 1305 l-220 -220 0 -305 0 -305 218 -218 217 -217 310 0 310 0
218 218 217 217 0 310 0 310 -213 213 -212 212 -313 3 -312 2 -220 -220z
m1012 -42 l198 -198 0 -280 0 -280 -202 -202 -203 -203 -280 0 -280 0 -197
197 -198 198 0 285 0 285 197 197 198 198 285 0 285 0 197 -197z"/>
</g>
</svg>
