<?xml version="1.0" standalone="no"?>
<!DOCTYPE svg PUBLIC "-//W3C//DTD SVG 20010904//EN"
 "http://www.w3.org/TR/2001/REC-SVG-20010904/DTD/svg10.dtd">
<svg version="1.0" xmlns="http://www.w3.org/2000/svg"
 width="512.000000pt" height="147.000000pt" viewBox="0 0 512.000000 147.000000"
 preserveAspectRatio="xMidYMid meet">
<metadata>
Created by potrace 1.16, written by Peter Selinger 2001-2019
</metadata>
<g transform="translate(0.000000,147.000000) scale(0.100000,-0.100000)"
fill="#000000" stroke="none">
<path d="M2418 1450 c-260 -44 -488 -239 -573 -490 -91 -267 -30 -546 162
-751 81 -86 162 -142 266 -183 68 -27 69 -27 290 -24 l222 3 85 42 c260 127
420 385 420 675 0 206 -86 398 -242 543 -88 82 -235 157 -350 180 -82 16 -201
18 -280 5z m320 -81 c227 -70 406 -253 468 -479 28 -104 24 -273 -9 -375 -69
-211 -231 -375 -437 -446 -99 -34 -280 -38 -385 -10 -127 35 -208 83 -305 180
-138 139 -200 286 -200 476 0 393 324 702 713 679 48 -2 118 -14 155 -25z"/>
<path d="M4198 1440 c-260 -44 -488 -239 -573 -490 -91 -267 -30 -546 162
-751 76 -80 158 -138 250 -177 48 -21 67 -22 294 -22 l243 0 80 39 c308 150
476 504 397 836 -25 102 -51 162 -107 246 -134 201 -380 331 -621 328 -43 -1
-99 -5 -125 -9z m320 -81 c227 -70 406 -253 468 -479 28 -104 24 -273 -9 -375
-69 -211 -231 -375 -437 -446 -99 -34 -280 -38 -385 -10 -127 35 -208 83 -305
180 -138 139 -200 286 -200 476 0 393 324 702 713 679 48 -2 118 -14 155 -25z"/>
<path d="M648 1420 c-260 -44 -488 -239 -573 -490 -90 -264 -30 -544 158 -746
74 -79 125 -119 206 -159 49 -25 50 -25 341 -25 l292 0 58 31 c290 154 447
504 371 824 -25 102 -51 162 -107 246 -134 201 -380 331 -621 328 -43 -1 -99
-5 -125 -9z m320 -81 c227 -70 406 -253 468 -479 28 -104 24 -273 -9 -375 -69
-211 -231 -375 -437 -446 -99 -34 -280 -38 -385 -10 -127 35 -208 83 -305 180
-138 139 -200 286 -200 476 0 393 324 702 713 679 48 -2 118 -14 155 -25z"/>
</g>
</svg>
