<?xml version="1.0" standalone="no"?>
<!DOCTYPE svg PUBLIC "-//W3C//DTD SVG 20010904//EN"
 "http://www.w3.org/TR/2001/REC-SVG-20010904/DTD/svg10.dtd">
<svg version="1.0" xmlns="http://www.w3.org/2000/svg"
 width="533.000000pt" height="157.000000pt" viewBox="0 0 533.000000 157.000000"
 preserveAspectRatio="xMidYMid meet">

<g transform="translate(0.000000,157.000000) scale(0.100000,-0.100000)"
fill="#000000" stroke="none">
<path d="M618 1510 c-260 -44 -488 -239 -573 -490 -91 -267 -30 -546 162 -751
228 -242 567 -304 868 -159 307 148 475 504 396 835 -25 102 -51 162 -107 246
-134 201 -380 331 -621 328 -43 -1 -99 -5 -125 -9z m320 -81 c227 -70 406
-253 468 -479 28 -104 24 -273 -9 -375 -69 -211 -231 -375 -437 -446 -99 -34
-280 -38 -385 -10 -127 35 -208 83 -305 180 -138 139 -200 286 -200 476 0 393
324 702 713 679 48 -2 118 -14 155 -25z"/>
<path d="M2100 1295 l-220 -220 0 -305 0 -305 218 -218 217 -217 310 0 310 0
218 218 217 217 0 310 0 310 -213 213 -212 212 -313 3 -312 2 -220 -220z
m1012 -42 l198 -198 0 -280 0 -280 -202 -202 -203 -203 -280 0 -280 0 -197
197 -198 198 0 285 0 285 197 197 198 198 285 0 285 0 197 -197z"/>
<path d="M4418 1490 c-260 -44 -488 -239 -573 -490 -91 -267 -30 -546 162
-751 228 -242 567 -304 868 -159 307 148 475 504 396 835 -25 102 -51 162
-107 246 -134 201 -380 331 -621 328 -43 -1 -99 -5 -125 -9z m320 -81 c227
-70 406 -253 468 -479 28 -104 24 -273 -9 -375 -69 -211 -231 -375 -437 -446
-99 -34 -280 -38 -385 -10 -127 35 -208 83 -305 180 -138 139 -200 286 -200
476 0 393 324 702 713 679 48 -2 118 -14 155 -25z"/>
</g>
</svg>
