<?xml version="1.0" standalone="no"?>
<!DOCTYPE svg PUBLIC "-//W3C//DTD SVG 20010904//EN"
 "http://www.w3.org/TR/2001/REC-SVG-20010904/DTD/svg10.dtd">
<svg version="1.0" xmlns="http://www.w3.org/2000/svg"
 width="587.000000pt" height="157.000000pt" viewBox="0 0 587.000000 157.000000"
 preserveAspectRatio="xMidYMid meet">

<g transform="translate(0.000000,157.000000) scale(0.100000,-0.100000)"
fill="#000000" stroke="none">
<path d="M2801 782 c-209 -419 -375 -762 -369 -762 715 -6 1508 -3 1507 5 0 6
-170 350 -378 765 l-379 755 -381 -763z m1038 -694 c1 -5 -296 -8 -659 -8
l-660 0 331 662 331 663 329 -655 c180 -360 328 -658 328 -662z"/>
<path d="M4998 1530 c-260 -44 -488 -239 -573 -490 -91 -267 -30 -546 162
-751 228 -242 567 -304 868 -159 307 148 475 504 396 835 -25 102 -51 162
-107 246 -134 201 -380 331 -621 328 -43 -1 -99 -5 -125 -9z m320 -81 c227
-70 406 -253 468 -479 28 -104 24 -273 -9 -375 -69 -211 -231 -375 -437 -446
-99 -34 -280 -38 -385 -10 -127 35 -208 83 -305 180 -138 139 -200 286 -200
476 0 393 324 702 713 679 48 -2 118 -14 155 -25z"/>
<path d="M0 745 l0 -505 975 0 975 0 0 505 0 505 -975 0 -975 0 0 -505z m1890
0 l0 -445 -917 2 -918 3 -3 443 -2 442 920 0 920 0 0 -445z"/>
</g>
</svg>
